{"title":"Romance.DVDRip.XviD-nsiervi_1.400Mb","uid":4783797,"size":1464340480,"categoryP":"video","categoryS":"movies","magnet":"?xt=urn:btih:e6077a5a7ca738227e13dfcb96dc3d3c1bb8b882&amp;dn=Romance.DVDRip.XviD-nsiervi_1.400Mb&amp;tr=udp%3A%2F%2Ftracker.openbittorrent.com%3A80&amp;tr=udp%3A%2F%2Fopen.demonii.com%3A1337&amp;tr=udp%3A%2F%2Ftracker.coppersurfer.tk%3A6969&amp;tr=udp%3A%2F%2Fexodus.desync.com%3A6969","seeders":1,"leechers":0,"uploader":"nsiervi","files":1,"time":1237479701,"description":"Cinema Nacional\nApresenta\n\n( Romance ) ( Audio PT-Br )\n\nSinopse:\nAna (LetÃƒÂ­cia Sabatella) e Afonso (Wagner Moura), dois jovens atores, se apaixonam durante a montagem teatral do Romance de TristÃƒÂ£o e Isolda. Ao mesmo tempo que recriam a histÃƒÂ³ria deste casal mÃƒÂ­tico que estÃƒÂ¡ na origem de todos os casais romÃƒÂ¢nticos, eles tentam descobrir para si prÃƒÂ³prios uma nova forma de se relacionar, menos trÃƒÂ¡gica e mais livre, porÃƒÂ©m carregada da mesma emoÃƒÂ§ÃƒÂ£o. Ao narrar o romance contemporÃƒÂ¢neo de Ana e Afonso, tendo como pano de fundo o romance clÃƒÂ¡ssico de TristÃƒÂ£o e Isolda, Romance ÃƒÂ© uma histÃƒÂ³ria de amor e uma histÃƒÂ³ria sobre o amor.\n\nElenco:\nWagner Moura ... Pedro\nLetÃƒÂ­cia Sabatella ... Ana\nAndrea BeltrÃƒÂ£o\nJosÃƒÂ© Wilker\nBruno Garcia\nTonico Pereira\nVladimir Brichta ... Orlando\nEdmilson Barros\nMarco Nanini\n\nInfos do Filme:\nTÃƒÂ­tulo no Brasil: Romance\nTÃƒÂ­tulo Original: Romance\nPaÃƒÂ­s de Origem: Brasil\nGÃƒÂªnero: Drama\nClassificaÃƒÂ§ÃƒÂ£o etÃƒÂ¡ria: 14 anos\nTempo de DuraÃƒÂ§ÃƒÂ£o: 105 minutos\nAno de LanÃƒÂ§amento: 2008\nEstrÃƒÂ©ia no Brasil: 14/11/2008\nSite Oficial: \nEstÃƒÂºdio/Distrib.: Buena Vista Pictures\nDireÃƒÂ§ÃƒÂ£o: Guel Arraes \nLink IMDB: http://www.imdb.com/title/tt0884177/\n\nDados do Arquivo:\nComplete name                    : E:Romance LanÃƒÂ§amentoRomance.DVDRip.XviD-nsiervi_1.400MbRomance.DVDRip.XviD-nsiervi.avi\nFormat                           : AVI\nFormat/Info                      : Audio Video Interleave\nFile size                        : 1.36 GiB\nDuration                         : 1h 44mn\nOverall bit rate                 : 1 866 Kbps\nWriting application              : VirtualDubMod 1.5.10.2 (build 2540/release)\nWriting library                  : VirtualDubMod build 2540/release\n\nVideo\nFormat                           : MPEG-4 Visual\nFormat profile                   : Streaming Video@L1\nFormat settings, BVOP            : Yes\nFormat settings, QPel            : No\nFormat settings, GMC             : No warppoints\nFormat settings, Matrix          : Default\nCodec ID                         : XVID\nCodec ID/Hint                    : XviD\nDuration                         : 1h 44mn\nBit rate                         : 1 408 Kbps\nWidth                            : 688 pixels\nHeight                           : 384 pixels\nDisplay aspect ratio             : 16/9\nFrame rate                       : 23.976 fps\nResolution                       : 24 bits\nColorimetry                      : 4:2:0\nScan type                        : Progressive\nBits/(Pixel*Frame)               : 0.222\nStream size                      : 1.03 GiB (75%)\nWriting library                  : XviD 1.1.2 (UTC 2006-11-01)\n\nAudio\nFormat                           : AC-3\nFormat/Info                      : Audio Coding 3\nCodec ID                         : 2000\nDuration                         : 1h 44mn\nBit rate mode                    : Constant\nBit rate                         : 448 Kbps\nChannel(s)                       : 6 channels\nChannel positions                : Front: L C R, Surround: L R, LFE\nSampling rate                    : 48.0 KHz\nStream size                      : 335 MiB (24%)\nAlignment                        : Split accross interleaves\nInterleave, duration             : 42 ms (1.00 video frame)\nInterleave, preload duration     : 500 ms\n\nThx From Brazil","torrent":{"xt":"urn:btih:e6077a5a7ca738227e13dfcb96dc3d3c1bb8b882","amp;dn":"Romance.DVDRip.XviD-nsiervi_1.400Mb","amp;tr":["udp%3A%2F%2Ftracker.openbittorrent.com%3A80","udp%3A%2F%2Fopen.demonii.com%3A1337","udp%3A%2F%2Ftracker.coppersurfer.tk%3A6969","udp%3A%2F%2Fexodus.desync.com%3A6969"],"infoHash":"e6077a5a7ca738227e13dfcb96dc3d3c1bb8b882","infoHashBuffer":{"type":"Buffer","data":[230,7,122,90,124,167,56,34,126,19,223,203,150,220,61,60,27,184,184,130]},"announce":[],"urlList":[]}}